<svg xmlns="http://www.w3.org/2000/svg" xmlns:xlink="http://www.w3.org/1999/xlink" width="225" zoomAndPan="magnify" viewBox="0 0 168.75 167.999997" height="224" preserveAspectRatio="xMidYMid meet" version="1.0"><defs><g/></defs><g fill="#000000" fill-opacity="1"><g transform="translate(5.973684, 101.178549)"><g><path d="M 0 0 L 0 -42.140625 L 12.046875 -42.140625 L 12.046875 -36.125 L 6.015625 -36.125 L 6.015625 -6.015625 L 12.046875 -6.015625 L 12.046875 -36.125 L 18.0625 -36.125 L 18.0625 0 Z M 0 0 "/></g></g></g><g fill="#000000" fill-opacity="1"><g transform="translate(30.055836, 101.178549)"><g><path d="M 0 0 L 0 -42.140625 L 18.0625 -42.140625 L 18.0625 0 Z M 6.015625 -6.015625 L 12.046875 -6.015625 L 12.046875 -36.125 L 6.015625 -36.125 Z M 6.015625 -6.015625 "/></g></g></g><g fill="#000000" fill-opacity="1"><g transform="translate(54.137988, 101.178549)"><g><path d="M 0 0 L 0 -42.140625 L 18.0625 -42.140625 L 18.0625 0 L 12.046875 0 L 12.046875 -36.125 L 6.015625 -36.125 L 6.015625 0 Z M 0 0 "/></g></g></g><g fill="#000000" fill-opacity="1"><g transform="translate(78.22014, 101.178549)"><g><path d="M 0 0 L 0 -42.140625 L 18.0625 -42.140625 L 18.0625 -30.09375 L 12.046875 -30.09375 L 12.046875 -36.125 L 6.015625 -36.125 L 6.015625 -30.09375 L 12.046875 -30.09375 L 12.046875 -24.078125 L 6.015625 -24.078125 L 6.015625 -6.015625 L 12.046875 -6.015625 L 12.046875 -24.078125 L 18.0625 -24.078125 L 18.0625 0 Z M 0 0 "/></g></g></g><g fill="#000000" fill-opacity="1"><g transform="translate(102.302291, 101.178549)"><g><path d="M 0 0 L 0 -30.09375 L 6.015625 -30.09375 L 6.015625 0 Z M 0 -36.125 L 0 -42.140625 L 6.015625 -42.140625 L 6.015625 -36.125 Z M 0 -36.125 "/></g></g></g><g fill="#000000" fill-opacity="1"><g transform="translate(114.343361, 101.178549)"><g><path d="M 0 0 L 0 -42.140625 L 12.046875 -42.140625 L 12.046875 -36.125 L 6.015625 -36.125 L 6.015625 -6.015625 L 12.046875 -6.015625 L 12.046875 -36.125 L 18.0625 -36.125 L 18.0625 0 Z M 0 0 "/></g></g></g><g fill="#000000" fill-opacity="1"><g transform="translate(138.425513, 101.178549)"><g><path d="M 0 0 L 0 -42.140625 L 18.0625 -42.140625 L 18.0625 -36.125 L 6.015625 -36.125 L 6.015625 -30.09375 L 18.0625 -30.09375 L 18.0625 -24.078125 L 6.015625 -24.078125 L 6.015625 -6.015625 L 12.046875 -6.015625 L 12.046875 -12.046875 L 18.0625 -12.046875 L 18.0625 0 Z M 0 0 "/></g></g></g></svg>