<?xml version="1.0" encoding="UTF-8"?>
<!DOCTYPE svg PUBLIC "-//W3C//DTD SVG 1.1//EN" "http://www.w3.org/Graphics/SVG/1.1/DTD/svg11.dtd">
<!-- Creator: CorelDRAW -->
<svg xmlns="http://www.w3.org/2000/svg" xml:space="preserve" width="14.2932mm" height="19.6374mm" version="1.1" style="shape-rendering:geometricPrecision; text-rendering:geometricPrecision; image-rendering:optimizeQuality; fill-rule:evenodd; clip-rule:evenodd"
viewBox="0 0 1415.2 1944.34"
 xmlns:xlink="http://www.w3.org/1999/xlink"
 xmlns:xodm="http://www.corel.com/coreldraw/odm/2003">
 <defs>
  <style type="text/css">
   <![CDATA[
    .fil0 {fill:#373435}
   ]]>
  </style>
 </defs>
 <g id="Capa_x0020_1">
  <metadata id="CorelCorpID_0Corel-Layer"/>
  <g id="_1883161070272">
   <path class="fil0" d="M534.02 2.51c-50.22,11.47 -74.4,42.58 -97.63,76.17 -23.45,33.92 -43.69,75.75 -79.7,92.11 -70.12,31.87 -187.27,26.3 -200.73,146.2 -5.38,47.76 8.64,119.69 -8.55,157.79 -15.89,35.18 -51.17,66.41 -72.95,101.85 -65.79,107.01 13.62,173.11 60.11,236.86 57.28,78.57 -26.44,196.44 69.85,268.63 33.7,25.28 79.1,33.24 124.42,47.61 59.1,18.74 63.68,38.8 93.36,81.39 24.65,35.39 45.3,69.65 83.69,88.26 46.89,22.72 98.18,5.57 141.57,-10.44 54.44,-20.08 77.41,-32.97 139.27,-11.01 39.42,14.01 92.41,39.62 140.44,31.27 95.61,-16.6 114,-136.82 176.48,-167.48 72.15,-35.41 185.44,-25.07 203.47,-143.65 7.51,-49.35 -9.77,-121.21 8.8,-162.87 10.69,-23.94 52.01,-70.05 73.13,-101.6 69.37,-103.56 -16.41,-175.41 -59.62,-235.86 -58.62,-81.98 26.39,-201.29 -72.93,-271.19 -36.98,-26.05 -79.94,-31.71 -125.21,-46.74 -53.76,-17.85 -64.9,-41.34 -91.77,-82.94 -55.75,-86.35 -98.61,-122.02 -227.29,-73.78 -56.56,21.21 -76.77,30.81 -138.66,8.36 -38.76,-14.06 -93.21,-39.5 -139.54,-28.93zm9.34 64.86c-32.17,9.03 -56.93,54.71 -74.76,81.67 -66.23,100.02 -100.38,82.09 -194.45,116.77 -50.82,18.72 -56.23,40.25 -53.95,102.73 5.39,147.51 -16.19,143.35 -80.74,229.43 -65.59,87.46 20.91,118.25 63.63,201.74 53.26,104.12 -30.37,201.54 63.49,242.12 74.55,32.24 139.14,17.53 198.84,115.15 16.19,26.48 46.18,73.02 71.58,84.06 57.94,25.2 133.87,-69.73 256.41,-29.87 125.57,40.84 126.95,64.41 199.55,-46.46 20.09,-30.68 44.27,-62.79 76.34,-79.25 38.28,-19.64 75.15,-24.78 116.34,-39.23 52.6,-18.44 59.79,-37.75 57.77,-101.35 -4.88,-153.77 14.53,-140.86 80.53,-232.67 64.47,-89.67 -12.25,-105.8 -63.12,-200.52 -54.67,-101.76 32.65,-203.34 -66.82,-244.37 -87.34,-36.02 -128.39,-12.26 -197.68,-116.41 -71,-106.75 -65.3,-97.89 -196.84,-53.26 -123.42,41.88 -196.67,-46.98 -256.09,-30.28z"/>
   <path class="fil0" d="M432.59 994.93c4.75,-4.61 4.19,-16.53 24.93,-22.66 21.47,-6.36 60.22,8.03 30.44,36.84 -5.46,5.28 -11.4,14.76 -20.73,14.56 5.95,9.38 51.23,33.18 66.18,40.84 192.94,98.8 430.58,33.69 560.94,-134.07 65.18,-83.86 109.28,-215.25 86,-351.84 -63.07,-370.11 -536.16,-519.11 -797.81,-215.39 -77.23,89.65 -115.67,218.95 -103.53,338.52 8.83,87.04 45.08,173.75 97.84,237.91 12.46,15.14 41.42,50.77 55.73,55.29zm270.88 -727.57c-206.15,17.02 -377.32,191.66 -359.82,418.22 15.94,206.29 197.03,375.95 421.3,357.55 201.57,-16.53 372.54,-194.22 354.73,-420.53 -15.78,-200.46 -195.1,-373.5 -416.21,-355.24z"/>
   <path class="fil0" d="M284.32 1721.76c14.6,19.18 71.16,129.51 88.87,160.81 16.27,28.75 26.94,56.1 64.44,61 40.41,5.29 61.49,-17.57 76.53,-48.17l85.3 -163.03c29.91,-54.59 56.6,-111.33 85.91,-165.4l63.01 -122.89c7.21,-38.41 -43.01,-59.21 -63.28,-19.19l-150.33 289.18c-14.23,26.49 -76.6,150.78 -86.65,163.82 -10.42,-9.36 -70.74,-124.87 -82.32,-146.27 -45.25,-83.66 -39.25,-78.25 -152.37,-72.3 -48.02,2.52 -99.09,7.27 -146.55,7.84 1.51,-20.67 248.82,-465.57 249.93,-487.73 0.88,-17.53 -11.59,-30.77 -25.89,-33.58 -21.82,-4.3 -31.33,8.47 -38.28,21.41 -15.08,28.05 -28.55,53.86 -43.41,81.95 -20.45,38.65 -206.45,382.37 -208.9,408.31 -3.54,37.67 20.93,65.48 49.74,73.21 35.32,9.48 183.36,-10.58 234.23,-8.95z"/>
   <path class="fil0" d="M1259.71 1707.13c-43.19,-5.18 -91.58,-16.89 -134.96,-24.71 -42.92,-7.75 -99,-27.49 -132.41,0.44 -18.6,15.54 -116.99,163.27 -137.41,184.16 -3.02,-2.18 -1.01,0.22 -3.93,-3.85l-97.64 -227c-8.75,-20.33 -13.03,-42.6 -40.42,-42.31 -25.22,0.28 -38.29,24.56 -28.57,48.37 16.25,39.76 33.22,79.19 50.8,118.53 16.93,37.9 33.29,77.7 49.83,116.74 11.49,27.07 14.36,35.6 36.84,47.94 22.3,12.23 46.99,10.51 67.53,-1.43 17.64,-10.25 58.28,-72.14 73.86,-92.73 12.55,-16.58 23.36,-32.31 35.33,-49.27 5.97,-8.47 11.66,-15.2 17.4,-23.59 6.19,-9.05 11.53,-16.23 19.15,-24.86 29.22,1.92 72.41,12.49 102.44,18.17 33.87,6.42 67.41,12.86 100.91,18.88 39.84,7.16 68,-9.18 80.64,-36.72 15.54,-33.89 -2.82,-65.93 -13.66,-95.57 -42.79,-117.07 -86.53,-233.65 -129.98,-350.54 -11.15,-29.99 -22.04,-57.82 -32.59,-87.5 -5.91,-16.6 -8.86,-29.94 -23.91,-36.29 -17.67,-7.47 -34.54,0.79 -41.18,11.91 -12.94,21.62 12.03,69.72 19.94,91.33l97.45 262.88c10.78,28.4 60.66,158.79 64.55,177.03z"/>
   <path class="fil0" d="M672.62 748.95c-12.23,-5.65 -103.48,-99.97 -119.48,-116.55 -16.69,-17.3 -21.55,-14.38 -36.41,1.58 -32.5,34.93 -36.79,17.54 39.09,93.97l87.33 87.41c8.74,8.72 18.95,26.97 36.54,17.25l264.08 -263.05c32.05,-31.74 34.58,-28.75 -1.44,-64.37 -16.64,-16.47 -25.72,-1.85 -35.62,8.22 -18.61,18.92 -225.05,222.61 -234.08,235.53z"/>
   <path class="fil0" d="M432.58 994.93c5.65,11.48 22.83,23.16 34.64,28.74 9.34,0.2 15.28,-9.29 20.73,-14.56 29.79,-28.81 -8.97,-43.2 -30.45,-36.84 -20.73,6.14 -20.16,18.05 -24.93,22.66z"/>
  </g>
 </g>
</svg>
